<svg xmlns="http://www.w3.org/2000/svg" viewBox="0 0 53.06 28.99">
    <title>Fichier 3</title>
    <path d="M2.6,19c-.11.61-.74,1.76.41,2s1.32-.28,1.59-1.58c1.05.23,1.77-1.3,1.77-1.3l-4.52-1.3S1.33,18.69,2.6,19Z"
          style="fill:#141414"/>
    <path d="M10,20.38c-.17.59-.91,1.67.21,2S11.54,22.27,12,21c1,.33,1.9-1.12,1.9-1.12L9.5,18.14S8.77,20,10,20.38Z"
          style="fill:#141414"/>
    <path d="M27.66,23.65c-.17.59-.91,1.66.21,2s1.34-.14,1.74-1.39c1,.33,1.9-1.11,1.9-1.11L27.16,21.4S26.43,23.25,27.66,23.65Z"
          style="fill:#141414"/>
    <path d="M45.82,26.66c.06.62-.23,1.89,1,1.81s1.18-.63,1.09-1.95c1.07-.08,1.34-1.75,1.34-1.75H44.5S44.52,26.76,45.82,26.66Z"
          style="fill:#141414"/>
    <path d="M36.11,27c-.09.61-.67,1.78.49,2s1.31-.34,1.53-1.64c1.06.18,1.72-1.37,1.72-1.37l-4.57-1.12S34.83,26.75,36.11,27Z"
          style="fill:#141414"/>
    <path d="M0,13.38s10.61,3.27,13.19,4.27,6,2.89,10.07,3.88S35.52,24.45,39.5,24.9c3.31.38,9.61-.26,11.94-.52A3,3,0,0,0,53,23.55a3.41,3.41,0,0,1,.1.65c0,.2-.7.71-2,1.15a53.8,53.8,0,0,1-9,1.21,111,111,0,0,1-11.27-1.49c-2.53-.53-9.39-1.86-12.29-2.76s-5.63-2-9.26-3.31c-2.89-1-5.85-1.77-7.39-2.23a7.84,7.84,0,0,1-.92-.31C.13,16.1,0,13.38,0,13.38Z"
          style="fill:#ed1c24"/>
    <path d="M8.43,0s3.26,3.57,6.88,4.61A10.44,10.44,0,0,0,20.6,4.3a23.52,23.52,0,0,0,3.95-1.48s9.89,9.68,13.62,11.84,12,5.3,13.34,6.21,1.55,3.33,1.55,3.33a42.22,42.22,0,0,1-15.83.57A136.45,136.45,0,0,1,18.1,20.19l-6-2.25L0,13.38A18.73,18.73,0,0,1,3.27,5.14C6.12,1.21,8.43,0,8.43,0Z"
          style="fill:#fff"/>
    <line x1="9.29" y1="13.36" x2="13.81" y2="9.4"
          style="fill:#fff;stroke:#000;stroke-miterlimit:10;stroke-width:1.5px"/>
    <line x1="11.37" y1="14.18" x2="14.73" y2="11.29"
          style="fill:#fff;stroke:#000;stroke-miterlimit:10;stroke-width:1.5px"/>
    <line x1="13.34" y1="15.11" x2="15.33" y2="13.43"
          style="fill:#fff;stroke:#000;stroke-miterlimit:10;stroke-width:1.5px"/>
    <path d="M40.24,15.75a8.34,8.34,0,0,1-3.66.63c-1.38-.29-8.46-5.13-10.29-6.58S20.6,4.3,20.6,4.3"
          style="fill:none;stroke:#ccc;stroke-miterlimit:10"/>
    <line x1="24.67" y1="5.71" x2="26.99" y2="4.84" style="fill:#001721;stroke:#333;stroke-miterlimit:10"/>
    <line x1="31.6" y1="11.89" x2="33.92" y2="11.03" style="fill:#001721;stroke:#333;stroke-miterlimit:10"/>
    <line x1="33.89" y1="13.73" x2="36.22" y2="12.86" style="fill:#001721;stroke:#333;stroke-miterlimit:10"/>
    <line x1="36.18" y1="15.34" x2="38.5" y2="14.47" style="fill:#001721;stroke:#333;stroke-miterlimit:10"/>
    <line x1="27.22" y1="7.79" x2="29.54" y2="6.93" style="fill:#001721;stroke:#333;stroke-miterlimit:10"/>
    <line x1="29.55" y1="9.89" x2="31.87" y2="9.03" style="fill:#001721;stroke:#333;stroke-miterlimit:10"/>
</svg>
