<svg xmlns="http://www.w3.org/2000/svg" width="171.542" height="167.098" viewBox="0 0 171.542 167.098">
  <g id="Groupe_24" data-name="Groupe 24" transform="translate(-1068 -873)">
    <g id="Plan_de_travail_1" data-name="Plan de travail 1" transform="translate(1088 893)">
      <rect id="Rectangle_37" data-name="Rectangle 37" width="125" height="125" rx="36" fill="#009245"/>
      <path id="Tracé_17" data-name="Tracé 17" d="M51,89.8l-7.882,12.38,2.712,14.331L63.8,122.3l18.145-5.788,4.895-16.205L76.693,86.416Z" fill="#e5b283"/>
      <path id="Tracé_18" data-name="Tracé 18" d="M37.437,82.205,54.028,98.41,70.3,96.349l17.33-18.608L89.812,39.5,61.668,33.678l-29.279,4.5Z" fill="#ffc78f"/>
      <path id="Tracé_19" data-name="Tracé 19" d="M65.063,19.435l21.772,2.811,9.194,9.381,3,15.015-10.9,22.379-1.1-28.012-9.547-4.068L61.668,33.678Z" fill="#754c24"/>
      <path id="Tracé_20" data-name="Tracé 20" d="M61.976,40.965l13.6-27.35L53.245,17.583,39.168,21.5,27.141,29.831,23.4,50.952,36.313,72.4,33.843,43.434,48.549,35.7Z" fill="#603813"/>
      <path id="Tracé_21" data-name="Tracé 21" d="M60.907,60.036,58.019,77.355l6.35,2.084Z" fill="#d3a479"/>
      <ellipse id="Ellipse_4" data-name="Ellipse 4" cx="5.159" cy="7.452" rx="5.159" ry="7.452" transform="translate(43.114 51.14)" fill="#fff"/>
      <ellipse id="Ellipse_5" data-name="Ellipse 5" cx="5.159" cy="7.452" rx="5.159" ry="7.452" transform="translate(67.312 51.14)" fill="#fff"/>
      <ellipse id="Ellipse_6" data-name="Ellipse 6" cx="1.301" cy="1.885" rx="1.301" ry="1.885" transform="translate(46.819 56.586)" fill="#1e1711"/>
      <ellipse id="Ellipse_7" data-name="Ellipse 7" cx="1.367" cy="1.973" rx="1.367" ry="1.973" transform="translate(70.961 56.497)" fill="#1e1711"/>
      <path id="Tracé_22" data-name="Tracé 22" d="M43.5,101.563l-19.2,2.106-14.21,12.843L7.463,125H120.138l-2.117-8.488-9.282-12.159-21.9-4.046L63.8,120.888Z" fill="#fff"/>
      <path id="Tracé_23" data-name="Tracé 23" d="M52.5,86.416l21.2-3.737a12.909,12.909,0,0,1-8.72,8.632C58.019,93.207,52.5,86.416,52.5,86.416Z" fill="#917153"/>
    </g>
    <g id="Ellipse_2" data-name="Ellipse 2" transform="translate(1090 895)" fill="none" stroke="#000" stroke-width="22">
      <circle cx="60.5" cy="60.5" r="60.5" stroke="none"/>
      <circle cx="60.5" cy="60.5" r="71.5" fill="none"/>
    </g>
    <g id="Tracé_6" data-name="Tracé 6" transform="translate(127 -740.56)" fill="#fff">
      <path d="M 1101.098022460938 1778.157470703125 C 1100.06884765625 1778.157470703125 1099.276489257813 1777.660522460938 1097.418579101563 1776.16748046875 C 1096.31103515625 1775.277587890625 1094.95654296875 1774.124633789063 1093.522583007813 1772.903930664063 C 1091.840698242188 1771.47216796875 1089.17138671875 1769.199951171875 1087.994384765625 1768.373168945313 C 1085.85986328125 1768.711059570313 1083.387084960938 1768.882080078125 1080.629028320313 1768.882080078125 C 1078.885131835938 1768.882080078125 1077.00146484375 1768.813720703125 1075.0302734375 1768.6787109375 C 1068.79150390625 1768.251831054688 1061.71826171875 1766.0302734375 1056.109375 1762.736083984375 C 1049.601318359375 1758.913818359375 1045.798461914063 1754.146118164063 1045.401489257813 1749.31103515625 C 1045.245361328125 1747.410278320313 1045.6015625 1745.451538085938 1046.460205078125 1743.489379882813 C 1047.228515625 1741.733520507813 1048.383178710938 1740.0126953125 1049.89208984375 1738.374755859375 C 1052.349609375 1735.707153320313 1055.586547851563 1733.417846679688 1059.253173828125 1731.754150390625 C 1063.091186523438 1730.0126953125 1067.136596679688 1729.09228515625 1070.951904296875 1729.09228515625 C 1071.482666015625 1729.09228515625 1072.015258789063 1729.110229492188 1072.534790039063 1729.145874023438 C 1081.419311523438 1729.75390625 1088.917236328125 1731.205810546875 1094.820434570313 1733.461303710938 C 1099.046997070313 1735.076293945313 1102.447143554688 1737.120483398438 1104.926391601563 1739.537109375 C 1107.966430664063 1742.50048828125 1109.67529296875 1746.041625976563 1110.005493164063 1750.062377929688 C 1110.184204101563 1752.239135742188 1109.698608398438 1754.38134765625 1108.561889648438 1756.429321289063 C 1107.671875 1758.032958984375 1106.3720703125 1759.586547851563 1104.698486328125 1761.046875 C 1103.088745117188 1762.451416015625 1101.148681640625 1763.766479492188 1098.912231445313 1764.970581054688 C 1099.386840820313 1765.933959960938 1099.995239257813 1767.116455078125 1100.467895507813 1768.03515625 C 1101.227661132813 1769.511962890625 1102.013305664063 1771.0390625 1102.595703125 1772.266357421875 C 1103.564208984375 1774.307250976563 1103.967529296875 1775.396728515625 1103.4833984375 1776.566650390625 C 1103.193359375 1777.267578125 1102.614868164063 1777.802001953125 1101.89599609375 1778.033081054688 C 1101.64013671875 1778.115478515625 1101.37158203125 1778.157470703125 1101.098876953125 1778.157470703125 C 1101.0986328125 1778.157470703125 1101.098266601563 1778.157470703125 1101.098022460938 1778.157470703125 Z" stroke="none"/>
      <path d="M 1070.951904296875 1731.59228515625 C 1059.49560546875 1731.59228515625 1047.2119140625 1740.812377929688 1047.89306640625 1749.1064453125 C 1048.602294921875 1757.74267578125 1063.36767578125 1765.374755859375 1075.201049804688 1766.1845703125 C 1077.0390625 1766.310424804688 1078.863891601563 1766.382080078125 1080.629028320313 1766.382080078125 C 1083.421020507813 1766.382080078125 1086.062133789063 1766.202514648438 1088.359619140625 1765.773681640625 C 1088.369018554688 1765.77197265625 1088.379028320313 1765.771118164063 1088.390014648438 1765.771118164063 C 1089.564819335938 1765.771118164063 1100.091674804688 1775.657470703125 1101.09814453125 1775.657470703125 C 1101.110595703125 1775.657470703125 1101.12158203125 1775.656005859375 1101.131103515625 1775.652954101563 C 1101.85009765625 1775.421875 1095.23583984375 1764.0068359375 1095.763793945313 1763.7578125 C 1098.945678710938 1762.258544921875 1108.10791015625 1757.501586914063 1107.513916015625 1750.266967773438 C 1106.318115234375 1735.705688476563 1084.197387695313 1732.449829101563 1072.364135742188 1731.640014648438 C 1071.895385742188 1731.60791015625 1071.424438476563 1731.59228515625 1070.951904296875 1731.59228515625 M 1070.951904296875 1726.59228515625 C 1071.539184570313 1726.59228515625 1072.129272460938 1726.6123046875 1072.705444335938 1726.651733398438 C 1081.837280273438 1727.276611328125 1089.578002929688 1728.781982421875 1095.712768554688 1731.1259765625 C 1100.259521484375 1732.863403320313 1103.946533203125 1735.090942382813 1106.67138671875 1737.746826171875 C 1108.3251953125 1739.35888671875 1109.652709960938 1741.153930664063 1110.617309570313 1743.082275390625 C 1111.66796875 1745.1826171875 1112.300415039063 1747.462158203125 1112.497192382813 1749.857788085938 C 1112.994018554688 1755.909545898438 1109.37255859375 1761.516967773438 1102.209106445313 1765.95361328125 C 1102.3779296875 1766.283203125 1102.541870117188 1766.601684570313 1102.69091796875 1766.891479492188 C 1103.459716796875 1768.3857421875 1104.254760742188 1769.931030273438 1104.854370117188 1771.194580078125 C 1105.22314453125 1771.971923828125 1105.484008789063 1772.569091796875 1105.675170898438 1773.074096679688 C 1105.93115234375 1773.750366210938 1106.611083984375 1775.546508789063 1105.79345703125 1777.5224609375 C 1105.222045898438 1778.9033203125 1104.080322265625 1779.956909179688 1102.661010742188 1780.4130859375 C 1102.15673828125 1780.575317382813 1101.630737304688 1780.657592773438 1101.09814453125 1780.657592773438 C 1099.16015625 1780.657592773438 1097.763061523438 1779.6513671875 1095.852783203125 1778.116455078125 C 1094.717895507813 1777.204467773438 1093.3505859375 1776.04052734375 1091.90283203125 1774.808227539063 C 1090.576782226563 1773.679443359375 1088.58251953125 1771.981811523438 1087.322509765625 1770.994384765625 C 1085.31787109375 1771.251831054688 1083.0751953125 1771.382080078125 1080.629028320313 1771.382080078125 C 1078.828491210938 1771.382080078125 1076.887329101563 1771.311767578125 1074.859619140625 1771.1728515625 C 1071.57763671875 1770.9482421875 1068.008666992188 1770.25146484375 1064.53857421875 1769.15771484375 C 1061.104736328125 1768.075317382813 1057.752197265625 1766.600219726563 1054.843383789063 1764.891845703125 C 1051.624267578125 1763.001220703125 1048.986206054688 1760.871704101563 1047.00244140625 1758.562622070313 C 1044.544799804688 1755.701904296875 1043.167846679688 1752.658081054688 1042.909790039063 1749.515625 C 1042.719482421875 1747.197631835938 1043.143432617188 1744.832885742188 1044.169799804688 1742.487182617188 C 1045.049560546875 1740.476684570313 1046.356079101563 1738.523193359375 1048.053344726563 1736.680786132813 C 1050.735717773438 1733.769165039063 1054.251342773438 1731.2783203125 1058.220092773438 1729.4775390625 C 1062.38037109375 1727.589965820313 1066.782836914063 1726.59228515625 1070.951904296875 1726.59228515625 Z" stroke="none"/>
    </g>
  </g>
</svg>
