<svg xmlns:xlink="http://www.w3.org/1999/xlink" xmlns="http://www.w3.org/2000/svg" viewBox="0 0 579.25 620.62">
    <defs>
        <linearGradient id="a" x1="-270.94" y1="-397.81" x2="-264.44" y2="-397.81"
                        gradientTransform="matrix(58.46, -1.03, -1.36, -76.83, 15368.79, -30386.4)"
                        gradientUnits="userSpaceOnUse">
            <stop offset="0"/>
            <stop offset="0.1"/>
            <stop offset="0.1" stop-color="red"/>
            <stop offset="0.23" stop-color="red"/>
            <stop offset="0.23"/>
            <stop offset="0.35"/>
            <stop offset="0.35" stop-color="red"/>
            <stop offset="0.47" stop-color="red"/>
            <stop offset="0.47"/>
            <stop offset="0.61"/>
            <stop offset="0.61" stop-color="red"/>
            <stop offset="0.72" stop-color="red"/>
            <stop offset="0.72"/>
            <stop offset="0.84"/>
            <stop offset="0.84" stop-color="red"/>
            <stop offset="0.93" stop-color="red"/>
            <stop offset="0.93"/>
            <stop offset="1"/>
        </linearGradient>
    </defs>
    <title>Supporter</title>
    <polygon points="222.68 324.3 243.18 285.83 302.84 283.53 321.4 324.3 312.37 400.56 234.64 400.56 222.68 324.3"
             style="fill:#eab1a0"/>
    <path d="M161.69,190A405.93,405.93,0,0,0,181,256.22a134.58,134.58,0,0,0,23.15,27.61c14.67,13.6,27,17,37.1,19.07,14.9,3.09,47.76-.75,61-4,8.24-2.06,18-8.19,30.28-18.48a143.78,143.78,0,0,0,23.27-23.81c7.92-10.41,16.18-70.59,16.18-70.59V144.56L353.05,112H197l-34.73,32.56Z"
          style="fill:#fec3ac"/>
    <path d="M199.67,118.19c9.28,2.39,23.85,10.17,32.87,13.58,4.89,1.84,19.48,7,35.92,7.15,13.91.12,29.82-4.34,35.32-7.15,12-6.13,23.06-10.85,32.17-13.58s24.08,10.71,29.53,19.9,4.38,61.51,4.38,61.51,10.58-55,10.58-64.58c0-5.07-.66-17.36-3.05-25.19s-7.83-18.72-16.34-25.53S339,70,326.67,66.6,280,62.14,280,62.14s-29-1.84-49.36,1.48-33.23,8.68-40.51,12.51-20.41,10-27.3,17.7c-2,2.24-7.59,8.61-9.81,16.65S152,123.94,152,136c0,17,12.65,67.54,12.65,67.54s3.9-49.49,9.69-59.54C177.22,138.43,190.39,115.81,199.67,118.19Z"
          style="fill:#493732"/>
    <path d="M234.64,253.9l73.87-5.79s-10.68,32.09-22.46,34.07-27.39,2.2-36.23-2.23S234.64,253.9,234.64,253.9Z"
          style="fill:#9e786c"/>
    <path d="M215.45,130.92c3.34-9.52,42.45-113,42.45-113s-45.64,6.65-73.46,28.91-41.55,63.68-41.55,63.68S156.83,130.92,215.45,130.92Z"
          style="fill:#ed1c24"/>
    <path d="M384.41,105.32s-24,25.6-68.08,25.6c-2.25-6.67-45.45-113-45.45-113s54.17,7,83.85,37.13S384.41,105.32,384.41,105.32Z"
          style="fill:#ed1c24"/>
    <path d="M270.88,17.92h-13s-30.26,41.6-35.46,62-7,51-7,51H316.33a315.73,315.73,0,0,0-8.28-50.32C301.38,54.26,270.88,17.92,270.88,17.92Z"/>
    <path d="M258.37,11.78c-3.12,1.67-4.92,6.89-4.92,6.89s.74,2.59,4.45,3.89,11.67.56,14.55,0,5-3.53,5-3.53-2.11-6.15-4.82-7.53S261.48,10.11,258.37,11.78Z"
          style="fill:#84121a"/>
    <path d="M167.35,119.19s-8.51,3.24-8.51,9.2,5.09,8.86,5.09,8.86,75.14-6.1,109.26-6.1,90.41,3.31,93.31,3.5,8.1-3.22,8.56-5.6-.36-8.47-3.88-10.14-67.63-8.06-97.79-8.06S167.35,119.19,167.35,119.19Z"
          style="fill:#9b0000"/>
    <path d="M378.61,129.88c0-4.87,29.2-5.85,41.87-5.85s42,1,42,5.85c0,.45,0,.94,0,1.9-3.78,4-25.24,8.65-41.94,8.65-15.14,0-36.62-4-41.95-8.1Z"
          style="fill:#999"/>
    <path d="M460.28,130.78s-12,7.05-39.8,7.05-39.79-7.05-39.79-7.05V32.49h79.59Z" style="fill:red"/>
    <path d="M378.61,31.58c0-4.87,29.2-5.84,41.87-5.84s42,1,42,5.84c0,.46,0,1,0,1.9-3.78,4-25.31,8.07-42,8.07-15.13,0-36.54-3.43-41.87-7.51Z"
          style="fill:#999"/>
    <path d="M460.28,31.58c0,2.69-17.82,7-39.8,7s-39.79-4.31-39.79-7,17.82-4.87,39.79-4.87S460.28,28.89,460.28,31.58Z"
          style="fill:red"/>
    <path d="M380.69,69.38c0,4.64,79.59-10,79.59-16.88V90.9c0,7-79.59,22.63-79.59,17.06Z" style="fill:#fff"/>
    <polygon points="438.39 31.42 439.68 34.09 450.17 34.09 453.69 33.09 453.04 31.42 449.42 30.58 438.39 31.42"
             style="fill:#400"/>
    <text transform="matrix(0.98, -0.16, 0.16, 0.99, 385.5, 95.94)"
          style="font-size:15.061800956726074px;fill:red;font-family:SpecialElite-Regular, Special Elite">HEINKOKE
    </text>
    <path d="M362,80.41s9.91,12.93,16.64,15.53a18.79,18.79,0,0,0-2.36,6.23c-.93,4.08,2.36,9.46,2.36,9.46s14,9.33,36.41,8.9c.74-2.78.74-7.79.74-11.39-23.56-1.48-35.07-8.67-35.07-8.67V83.8c-5.92-1.85-11.12-6.68-11.12-6.68Z"
          style="fill:#736357"/>
    <path d="M70.11,125c0-4.87,29.21-5.84,41.88-5.84s42,1,42,5.84c0,.46,0,1,0,1.9-3.78,4-25.24,8.65-41.95,8.65-15.13,0-36.61-4-41.95-8.09Z"
          style="fill:#999"/>
    <path d="M151.78,125.93s-12,7-39.79,7-39.79-7-39.79-7V27.64h79.58Z" style="fill:red"/>
    <path d="M70.11,26.73c0-4.86,29.21-5.84,41.88-5.84s42,1,42,5.84c0,.46,0,.95,0,1.91-3.78,4-25.31,8.07-42,8.07-15.14,0-36.54-3.44-41.88-7.52Z"
          style="fill:#999"/>
    <path d="M151.78,26.73c0,2.69-17.81,7-39.79,7s-39.79-4.32-39.79-7S90,21.87,112,21.87,151.78,24.05,151.78,26.73Z"
          style="fill:red"/>
    <path d="M72.2,64.53c0,4.64,79.58-10,79.58-16.88v38.4c0,7-79.58,22.63-79.58,17.07Z" style="fill:#fff"/>
    <polygon points="129.89 26.57 131.19 29.24 141.67 29.24 145.2 28.24 144.55 26.57 140.93 25.74 129.89 26.57"
             style="fill:#400"/>
    <text transform="matrix(0.98, -0.16, 0.16, 0.99, 77, 91.1)"
          style="font-size:15.061800956726074px;fill:red;font-family:SpecialElite-Regular, Special Elite">HEINKOKE
    </text>
    <path d="M170.55,80.41s-9.91,12.93-16.64,15.53a18.79,18.79,0,0,1,2.36,6.23c.92,4.08-2.36,9.46-2.36,9.46s-14,9.33-36.42,8.9c-.74-2.78-.74-7.79-.74-11.39,23.56-1.48,35.07-8.67,35.07-8.67V83.8c5.93-1.85,11.12-6.68,11.12-6.68Z"
          style="fill:#736357"/>
    <path d="M134.07,29.24h5.73s16.8-18.4,27.31-21.34,28,3.73,32.18,7.48a42.87,42.87,0,0,1,10.79,16.49l5.37-2.27s-3.86-12-10-17.83S182.28-3.11,165.93,1.07C152.86,4.68,134.07,29.24,134.07,29.24Z"
          style="fill:#ff0"/>
    <path d="M449.38,34.08h-6.82c-5.19-6.39-16.8-18.4-27.31-21.34s-36.59-.16-43.64,4.15S339.4,42.61,339.4,42.61l-5.26-3.26s21.3-19.71,31.34-26.07c11.7-7.95,34.33-10.64,50.95-7.37C429.5,9.52,444.72,25,449.38,34.08Z"
          style="fill:#ff0"/>
    <polygon points="171.86 229.96 167.69 235.96 167.69 243.04 170.6 248.55 176.03 242.76 171.86 229.96"
             style="fill:#eae400"/>
    <path d="M167.69,236s2.43,19.91,9.19,20,19.06-6.45,35.81-5.86c7.12.28,16.11,8,27.23,11.76,5.35,1.79,11.18-2.11,11.18-2.11a7.52,7.52,0,0,1,4.17,2.38,12.92,12.92,0,0,1,2.45,4.41,18.7,18.7,0,0,1-16.14,4.59c-10.06-1.76-21.83-10.29-30.39-11-13.65-1-26.05,5.67-33.8,4.91s-9.19-2.18-11.57-5.28-3-6.12-3-12.25S167.69,236,167.69,236Z"
          style="fill:#ff0"/>
    <polygon points="267.68 176 254.16 226.12 277.34 237.24 267.68 176" style="fill:#e5ad9c"/>
    <ellipse cx="305.4" cy="173.49" rx="16" ry="20.43" style="fill:#fff"/>
    <ellipse cx="305" cy="174.58" rx="5.38" ry="6.87"/>
    <ellipse cx="227.69" cy="174.58" rx="15.49" ry="20.43" style="fill:#fff"/>
    <ellipse cx="227.89" cy="175.66" rx="5.21" ry="6.87"/>
    <polygon points="54.22 453.19 0 535.64 79.64 575.95 128.15 493.55 54.22 453.19" style="fill:#fec3ac"/>
    <polygon points="497.7 434.39 579.25 584.64 479.79 589.5 436.1 491.83 497.7 434.39" style="fill:#fec3ac"/>
    <polygon points="125.85 334.05 212.24 403.97 122.34 515.04 42.08 454.43 125.85 334.05"/>
    <polygon points="342.17 408.82 419.35 328.86 517.99 448.64 434.25 505.58 342.17 408.82"/>
    <path d="M125.69,334.06l95-14.57,50.1,48.35,53.23-50.18,95.31,11.2L426,586l-293.67,5.2Z" style="fill:url(#a)"/>
    <g style="isolation:isolate">
        <text transform="matrix(1, -0.02, 0.02, 1, 207.91, 570.81)"
              style="isolation:isolate;font-size:150.70953369140625px;fill:#fff;font-family:Impact">10
        </text>
    </g>
    <polygon points="220.77 319.48 273.47 370.24 267.14 377 210.09 321.12 220.77 319.48" style="fill:red"/>
    <polygon points="198.5 322.89 210.09 321.12 263.55 373.54 255.91 380.77 198.5 322.89"/>
    <polygon points="324.05 317.66 255.91 380.77 262.51 387.37 334.49 318.89 324.05 317.66" style="fill:red"/>
    <polygon points="342.76 319.86 334.49 318.89 262.51 387.37 267.67 393.08 342.76 319.86"/>
</svg>
