<svg xmlns="http://www.w3.org/2000/svg" viewBox="0 0 666 926">
    <title>Fichier 1</title>
    <polygon points="16 129 48 875 461 875 488 129 16 129" style="fill:#71e0fe"/>
    <polygon
            points="206 112 23.72 314.15 27.59 399.12 252 129 382.19 127.25 45 651 45.17 847.25 468 125 488 129 488 362 342 889 468 889 499 322 499 96 206 112"
            style="fill:#88edff"/>
    <polygon points="666 108 518 0.43 479 926 666 926 666 108" style="fill:#d6b390"/>
    <path d="M0,0,37,926H479L518,0ZM32,143H169l6.94,206.57L41,350ZM178,388l6.94,206.57L50,595,41,388ZM57,840,48,633H185l6.94,206.57Zm257,0H214l-8-207H319Zm5-245H205l-9-207H322Zm5-245H196l-8-207H327ZM456,840H335l4-207H461Zm7-245H342l4-207H468Zm8-245H350l4-207H476Z"
          style="fill:#e5c098"/>
    <path d="M94.92,19.1a49.74,49.74,0,1,0,49.74,49.74A49.74,49.74,0,0,0,94.92,19.1ZM123,101.47c-3.08,3.08-22.43,16.17-44,8C72.71,107,51.54,93.11,51.54,72c0-31.81,24.11-42.09,27.63-43.42a1.85,1.85,0,0,1,.43-.15l-.43.15C75.09,30.67,61,51.69,80.39,66.25c15.32,9.55,28.25-3.78,28.25-3.78l-.2-34.62s10.35,3,14.73,8.76C123.17,39,123,89.93,123,101.47Zm5.37-5.37V41.58s10.15,12.14,10.15,27.26S128.34,96.1,128.34,96.1Z"/>
    <text transform="translate(162.47 96.17)" style="font-size:67px;font-family:HelveticaNeueMedium, HelveticaNeue">uhl
        sport
    </text>
    <rect x="24" y="239" width="461" height="7" style="fill:#e5c098"/>
    <rect x="38" y="488" width="440" height="7" style="fill:#e5c098"/>
    <rect x="45" y="733" width="425" height="7" style="fill:#e5c098"/>
    <polygon points="102.62 136.75 124.37 845.53 117.38 845.73 95.62 136.95 102.62 136.75" style="fill:#e5c098"/>
    <polygon points="420.9 138.9 392.67 844.47 385.68 844.21 413.9 138.64 420.9 138.9" style="fill:#e5c098"/>
    <rect x="-94.2" y="487.57" width="708.09" height="7" transform="translate(-231.23 750.91) rotate(-90)"
          style="fill:#e5c098"/>
</svg>
